<?xml version="1.0" encoding="utf-8" standalone="no"?>
<!DOCTYPE svg PUBLIC "-//W3C//DTD SVG 1.1//EN"
  "http://www.w3.org/Graphics/SVG/1.1/DTD/svg11.dtd">
<!-- Created with matplotlib (http://matplotlib.org/) -->
<svg height="345pt" version="1.1" viewBox="0 0 460 345" width="460pt" xmlns="http://www.w3.org/2000/svg" xmlns:xlink="http://www.w3.org/1999/xlink">
 <defs>
  <style type="text/css">
*{stroke-linecap:butt;stroke-linejoin:round;}
  </style>
 </defs>
 <g id="figure_1">
  <g id="patch_1">
   <path d="M 0 345.6 
L 460.8 345.6 
L 460.8 0 
L 0 0 
z
" style="fill:#ffffff;"/>
  </g>
  <g id="axes_1">
   <g id="matplotlib.axis_1">
    <g id="xtick_1">
     <g id="line2d_1">
      <defs>
       <path d="M 0 0 
L 0 2 
" id="mba46a1aeca" style="stroke:#555555;stroke-width:0.6;"/>
      </defs>
      <g>
       <use style="fill:#555555;stroke:#555555;stroke-width:0.6;" x="73.832727" xlink:href="#mba46a1aeca" y="162.432"/>
      </g>
     </g>
    </g>
    <g id="xtick_2">
     <g id="line2d_2">
      <g>
       <use style="fill:#555555;stroke:#555555;stroke-width:0.6;" x="106.298182" xlink:href="#mba46a1aeca" y="162.432"/>
      </g>
     </g>
    </g>
    <g id="xtick_3">
     <g id="line2d_3">
      <g>
       <use style="fill:#555555;stroke:#555555;stroke-width:0.6;" x="138.763636" xlink:href="#mba46a1aeca" y="162.432"/>
      </g>
     </g>
    </g>
    <g id="xtick_4">
     <g id="line2d_4">
      <g>
       <use style="fill:#555555;stroke:#555555;stroke-width:0.6;" x="171.229091" xlink:href="#mba46a1aeca" y="162.432"/>
      </g>
     </g>
    </g>
    <g id="xtick_5">
     <g id="line2d_5">
      <g>
       <use style="fill:#555555;stroke:#555555;stroke-width:0.6;" x="203.694545" xlink:href="#mba46a1aeca" y="162.432"/>
      </g>
     </g>
    </g>
   </g>
   <g id="matplotlib.axis_2"/>
   <g id="patch_2">
    <path d="M 203.694545 101.952 
C 203.694545 101.445314 203.683864 100.938658 203.662506 100.432222 
C 203.641148 99.925785 203.609115 99.41963 203.566419 98.913944 
L 138.763636 101.952 
L 203.694545 101.952 
z
" style="fill:#ff007a;"/>
   </g>
   <g id="patch_3">
    <path d="M 203.566419 98.913944 
C 203.036414 92.636562 200.868774 86.496006 197.18511 80.836775 
C 193.501446 75.177544 188.371957 70.107487 182.08442 65.911046 
C 175.796882 61.714604 168.471118 58.47175 160.518119 56.364414 
C 152.565121 54.257079 144.136449 53.325422 135.704971 53.621712 
C 127.273493 53.918002 118.999889 55.436592 111.348327 58.092286 
C 103.696765 60.747981 96.813061 64.490169 91.083407 69.108905 
C 85.353753 73.727642 80.88734 79.134908 77.934743 85.027343 
C 74.982146 90.919778 73.599633 97.18509 73.864767 103.47178 
C 74.129901 109.758469 76.037628 115.946731 79.480921 121.689389 
C 82.924215 127.432048 87.837455 132.619664 93.944998 136.961201 
C 100.05254 141.302739 107.237994 144.71546 115.098238 147.007904 
C 122.958482 149.300348 131.343723 150.428827 139.78353 150.330031 
C 148.223336 150.231235 156.556871 148.907047 164.316603 146.431756 
C 172.076334 143.956465 179.114386 140.377244 185.035906 135.894895 
C 190.957426 131.412546 195.649567 126.112489 198.849091 120.29207 
C 202.048614 114.471651 203.694546 108.24179 203.694545 101.951997 
L 138.763636 101.952 
L 203.566419 98.913944 
z
" style="fill:#620080;"/>
   </g>
   <g id="text_1">
    <!-- $1.00\% $ -->
    <defs>
     <path d="M 26.59375 63.40625 
C 26.59375 65.5 26.5 65.5 25.09375 65.5 
C 21.203125 61.1875 15.296875 59.796875 9.703125 59.796875 
C 9.40625 59.796875 8.90625 59.796875 8.796875 59.5 
C 8.703125 59.296875 8.703125 59.09375 8.703125 57 
C 11.796875 57 17 57.59375 21 59.984375 
L 21 7.203125 
C 21 3.6875 20.796875 2.5 12.203125 2.5 
L 9.203125 2.5 
L 9.203125 0 
C 14 0 19 0 23.796875 0 
C 28.59375 0 33.59375 0 38.40625 0 
L 38.40625 2.5 
L 35.40625 2.5 
C 26.796875 2.5 26.59375 3.59375 26.59375 7.15625 
z
" id="CMR17-49"/>
     <path d="M 18.40625 4.796875 
C 18.40625 7.6875 16 9.671875 13.59375 9.671875 
C 10.703125 9.671875 8.703125 7.28125 8.703125 4.890625 
C 8.703125 2 11.09375 0 13.5 0 
C 16.40625 0 18.40625 2.390625 18.40625 4.796875 
" id="CMMI12-58"/>
     <path d="M 42 31.640625 
C 42 37.75 41.90625 48.125 37.703125 56.109375 
C 34 63.109375 28.09375 65.59375 22.90625 65.59375 
C 18.09375 65.59375 12 63.40625 8.203125 56.203125 
C 4.203125 48.71875 3.796875 39.4375 3.796875 31.640625 
C 3.796875 25.953125 3.90625 17.28125 7 9.671875 
C 11.296875 -0.609375 19 -2 22.90625 -2 
C 27.5 -2 34.5 -0.109375 38.59375 9.375 
C 41.59375 16.28125 42 24.359375 42 31.640625 
M 22.90625 -0.40625 
C 16.5 -0.40625 12.703125 5.078125 11.296875 12.6875 
C 10.203125 18.5625 10.203125 27.15625 10.203125 32.75 
C 10.203125 40.4375 10.203125 46.828125 11.5 52.921875 
C 13.40625 61.390625 19 64 22.90625 64 
C 27 64 32.296875 61.296875 34.203125 53.125 
C 35.5 47.4375 35.59375 40.734375 35.59375 32.75 
C 35.59375 26.25 35.59375 18.265625 34.40625 12.375 
C 32.296875 1.484375 26.40625 -0.40625 22.90625 -0.40625 
" id="CMR17-48"/>
     <path d="M 72.5 14.984375 
C 72.5 26.53125 66.796875 35 60.09375 35 
C 53.296875 35 46.40625 27.125 46.40625 14.984375 
C 46.40625 2.859375 53.203125 -5 60.09375 -5 
C 66.796875 -5 72.5 3.359375 72.5 14.984375 
M 60.203125 -3.40625 
C 57.59375 -3.40625 51.09375 -1.03125 51.09375 14.984375 
C 51.09375 31.109375 57.59375 33.40625 60.203125 33.40625 
C 65.703125 33.40625 70.703125 25.53125 70.703125 14.984375 
C 70.703125 4.453125 65.703125 -3.40625 60.203125 -3.40625 
M 63.796875 71.515625 
C 64.5 72.609375 64.59375 72.703125 64.59375 73.203125 
C 64.59375 74.390625 63.703125 75 62.90625 75 
C 61.90625 75 61.5 74.3125 60.796875 73.53125 
C 55 65.46875 47 64.59375 42.90625 64.59375 
C 32.90625 64.59375 26.796875 70.21875 24.90625 71.984375 
C 23.59375 73.15625 21.703125 75 18.296875 75 
C 11.5 75 4.59375 67.125 4.59375 54.984375 
C 4.59375 42.859375 11.40625 35 18.296875 35 
C 25 35 30.703125 43.40625 30.703125 55.109375 
C 30.703125 62.015625 28.59375 66.71875 28.296875 67.3125 
C 34.40625 63.5 40.40625 63 43 63 
C 49.40625 63 54 65.359375 56.5 67.015625 
L 56.59375 66.921875 
L 13.40625 -1.3125 
C 12.5 -2.71875 12.5 -2.921875 12.5 -3.21875 
C 12.5 -4.3125 13.40625 -5 14.296875 -5 
C 15.203125 -5 15.5 -4.515625 16.203125 -3.40625 
z
M 18.40625 36.59375 
C 15.796875 36.59375 9.296875 38.96875 9.296875 54.984375 
C 9.296875 71.109375 15.796875 73.40625 18.40625 73.40625 
C 23.90625 73.40625 28.90625 65.53125 28.90625 54.984375 
C 28.90625 44.453125 23.90625 36.59375 18.40625 36.59375 
" id="CMR17-37"/>
    </defs>
    <g transform="translate(164.696138 103.530793)scale(0.1 -0.1)">
     <use transform="scale(0.996264)" xlink:href="#CMR17-49"/>
     <use transform="translate(45.690477 0)scale(0.996264)" xlink:href="#CMMI12-58"/>
     <use transform="translate(72.787654 0)scale(0.996264)" xlink:href="#CMR17-48"/>
     <use transform="translate(118.478131 0)scale(0.996264)" xlink:href="#CMR17-48"/>
     <use transform="translate(164.168608 0)scale(0.996264)" xlink:href="#CMR17-37"/>
    </g>
   </g>
   <g id="text_2">
    <!-- $99.00\% $ -->
    <defs>
     <path d="M 35.203125 29.125 
C 35.203125 7.25 26.09375 0.484375 18.59375 0.484375 
C 16.296875 0.484375 10.703125 0.484375 8.40625 4.59375 
C 11 4.1875 12.90625 5.578125 12.90625 8.09375 
C 12.90625 10.8125 10.703125 11.703125 9.296875 11.703125 
C 8.40625 11.703125 5.703125 11.296875 5.703125 7.90625 
C 5.703125 1.109375 11.59375 -2 18.796875 -2 
C 30.296875 -2 42 10.53125 42 32.390625 
C 42 59.640625 30.796875 65.296875 23.203125 65.296875 
C 13.296875 65.296875 3.796875 56.6875 3.796875 43.40625 
C 3.796875 31.109375 11.90625 22 22.09375 22 
C 30.5 22 34.203125 29.734375 35.203125 33 
z
M 22.296875 23.59375 
C 19.59375 23.59375 15.796875 24.09375 12.703125 30.03125 
C 10.59375 33.890625 10.59375 38.453125 10.59375 43.296875 
C 10.59375 49.15625 10.59375 53.203125 13.40625 57.5625 
C 14.796875 59.640625 17.40625 63 23.203125 63 
C 35 63 35 45.078125 35 41.125 
C 35 34.09375 31.796875 23.59375 22.296875 23.59375 
" id="CMR17-57"/>
    </defs>
    <g transform="translate(84.326827 105.354528)scale(0.1 -0.1)">
     <use transform="scale(0.996264)" xlink:href="#CMR17-57"/>
     <use transform="translate(45.690477 0)scale(0.996264)" xlink:href="#CMR17-57"/>
     <use transform="translate(91.380954 0)scale(0.996264)" xlink:href="#CMMI12-58"/>
     <use transform="translate(118.478131 0)scale(0.996264)" xlink:href="#CMR17-48"/>
     <use transform="translate(164.168608 0)scale(0.996264)" xlink:href="#CMR17-48"/>
     <use transform="translate(209.859086 0)scale(0.996264)" xlink:href="#CMR17-37"/>
    </g>
   </g>
  </g>
  <g id="axes_2">
   <g id="matplotlib.axis_3">
    <g id="xtick_6">
     <g id="line2d_6">
      <g>
       <use style="fill:#555555;stroke:#555555;stroke-width:0.6;" x="268.625455" xlink:href="#mba46a1aeca" y="162.432"/>
      </g>
     </g>
    </g>
    <g id="xtick_7">
     <g id="line2d_7">
      <g>
       <use style="fill:#555555;stroke:#555555;stroke-width:0.6;" x="301.090909" xlink:href="#mba46a1aeca" y="162.432"/>
      </g>
     </g>
    </g>
    <g id="xtick_8">
     <g id="line2d_8">
      <g>
       <use style="fill:#555555;stroke:#555555;stroke-width:0.6;" x="333.556364" xlink:href="#mba46a1aeca" y="162.432"/>
      </g>
     </g>
    </g>
    <g id="xtick_9">
     <g id="line2d_9">
      <g>
       <use style="fill:#555555;stroke:#555555;stroke-width:0.6;" x="366.021818" xlink:href="#mba46a1aeca" y="162.432"/>
      </g>
     </g>
    </g>
    <g id="xtick_10">
     <g id="line2d_10">
      <g>
       <use style="fill:#555555;stroke:#555555;stroke-width:0.6;" x="398.487273" xlink:href="#mba46a1aeca" y="162.432"/>
      </g>
     </g>
    </g>
   </g>
   <g id="matplotlib.axis_4"/>
   <g id="patch_4">
    <path d="M 398.487273 101.952 
C 398.487273 101.495984 398.478621 101.039991 398.46132 100.584157 
C 398.44402 100.128323 398.418072 99.672694 398.383484 99.217407 
L 333.556364 101.952 
L 398.487273 101.952 
z
" style="fill:#ff007a;"/>
   </g>
   <g id="patch_5">
    <path d="M 398.383484 99.217407 
C 397.905935 92.931285 395.786302 86.774643 392.143739 81.093573 
C 388.501176 75.412504 383.405241 70.315492 377.142401 66.089064 
C 370.87956 61.862636 363.569409 58.5875 355.622882 56.447765 
C 347.676356 54.30803 339.245202 53.344558 330.803372 53.611508 
C 322.361543 53.878459 314.070243 55.370735 306.395565 58.004449 
C 298.720887 60.638163 291.809385 64.363022 286.049586 68.969634 
C 280.289787 73.576246 275.79168 78.976644 272.808124 84.867248 
C 269.824568 90.757851 268.412537 97.026173 268.651407 103.319842 
C 268.890277 109.613512 270.775487 115.812346 274.20106 121.56788 
C 277.626634 127.323414 282.527157 132.52574 288.627148 136.882412 
C 294.727139 141.239085 301.910114 144.666909 309.772285 146.973191 
C 317.634456 149.279473 326.025688 150.420172 334.474271 150.331165 
C 342.922854 150.242158 351.267455 148.925144 359.038986 146.454158 
C 366.810517 143.983173 373.860573 140.405402 379.79284 135.921968 
C 385.725106 131.438533 390.4263 126.135051 393.632146 120.309655 
C 396.837993 114.484258 398.487273 108.248187 398.487273 101.952001 
L 333.556364 101.952 
L 398.383484 99.217407 
z
" style="fill:#620080;"/>
   </g>
   <g id="text_3">
    <!-- $0.90\% $ -->
    <g transform="translate(359.492518 103.621954)scale(0.1 -0.1)">
     <use transform="scale(0.996264)" xlink:href="#CMR17-48"/>
     <use transform="translate(45.690477 0)scale(0.996264)" xlink:href="#CMMI12-58"/>
     <use transform="translate(72.787654 0)scale(0.996264)" xlink:href="#CMR17-57"/>
     <use transform="translate(118.478131 0)scale(0.996264)" xlink:href="#CMR17-48"/>
     <use transform="translate(164.168608 0)scale(0.996264)" xlink:href="#CMR17-37"/>
    </g>
   </g>
   <g id="text_4">
    <!-- $99.10\% $ -->
    <g transform="translate(279.115902 105.263366)scale(0.1 -0.1)">
     <use transform="scale(0.996264)" xlink:href="#CMR17-57"/>
     <use transform="translate(45.690477 0)scale(0.996264)" xlink:href="#CMR17-57"/>
     <use transform="translate(91.380954 0)scale(0.996264)" xlink:href="#CMMI12-58"/>
     <use transform="translate(118.478131 0)scale(0.996264)" xlink:href="#CMR17-49"/>
     <use transform="translate(164.168608 0)scale(0.996264)" xlink:href="#CMR17-48"/>
     <use transform="translate(209.859086 0)scale(0.996264)" xlink:href="#CMR17-37"/>
    </g>
   </g>
  </g>
  <g id="axes_3">
   <g id="matplotlib.axis_5">
    <g id="xtick_11">
     <g id="line2d_11">
      <g>
       <use style="fill:#555555;stroke:#555555;stroke-width:0.6;" x="73.832727" xlink:href="#mba46a1aeca" y="307.584"/>
      </g>
     </g>
    </g>
    <g id="xtick_12">
     <g id="line2d_12">
      <g>
       <use style="fill:#555555;stroke:#555555;stroke-width:0.6;" x="106.298182" xlink:href="#mba46a1aeca" y="307.584"/>
      </g>
     </g>
    </g>
    <g id="xtick_13">
     <g id="line2d_13">
      <g>
       <use style="fill:#555555;stroke:#555555;stroke-width:0.6;" x="138.763636" xlink:href="#mba46a1aeca" y="307.584"/>
      </g>
     </g>
    </g>
    <g id="xtick_14">
     <g id="line2d_14">
      <g>
       <use style="fill:#555555;stroke:#555555;stroke-width:0.6;" x="171.229091" xlink:href="#mba46a1aeca" y="307.584"/>
      </g>
     </g>
    </g>
    <g id="xtick_15">
     <g id="line2d_15">
      <g>
       <use style="fill:#555555;stroke:#555555;stroke-width:0.6;" x="203.694545" xlink:href="#mba46a1aeca" y="307.584"/>
      </g>
     </g>
    </g>
   </g>
   <g id="matplotlib.axis_6"/>
   <g id="patch_6">
    <path d="M 203.694545 247.104 
C 203.694545 246.647984 203.685894 246.191991 203.668593 245.736157 
C 203.651292 245.280323 203.625344 244.824694 203.590757 244.369407 
L 138.763636 247.104 
L 203.694545 247.104 
z
" style="fill:#ff007a;"/>
   </g>
   <g id="patch_7">
    <path d="M 203.590757 244.369407 
C 203.113207 238.083285 200.993574 231.926643 197.351011 226.245573 
C 193.708449 220.564504 188.612514 215.467492 182.349674 211.241064 
C 176.086833 207.014636 168.776682 203.7395 160.830155 201.599765 
C 152.883629 199.46003 144.452474 198.496558 136.010645 198.763508 
C 127.568816 199.030459 119.277516 200.522735 111.602838 203.156449 
C 103.928159 205.790163 97.016657 209.515022 91.256859 214.121634 
C 85.49706 218.728246 80.998953 224.128644 78.015397 230.019248 
C 75.031841 235.909851 73.61981 242.178173 73.85868 248.471842 
C 74.09755 254.765512 75.982759 260.964346 79.408333 266.71988 
C 82.833907 272.475414 87.734429 277.67774 93.834421 282.034412 
C 99.934412 286.391085 107.117387 289.818909 114.979558 292.125191 
C 122.841729 294.431473 131.232961 295.572172 139.681544 295.483165 
C 148.130127 295.394158 156.474728 294.077144 164.246259 291.606158 
C 172.01779 289.135173 179.067846 285.557402 185.000112 281.073968 
C 190.932379 276.590533 195.633573 271.287051 198.839419 265.461655 
C 202.045265 259.636258 203.694545 253.400187 203.694545 247.104001 
L 138.763636 247.104 
L 203.590757 244.369407 
z
" style="fill:#620080;"/>
   </g>
   <g id="text_5">
    <!-- $0.90\% $ -->
    <g transform="translate(164.699791 248.773954)scale(0.1 -0.1)">
     <use transform="scale(0.996264)" xlink:href="#CMR17-48"/>
     <use transform="translate(45.690477 0)scale(0.996264)" xlink:href="#CMMI12-58"/>
     <use transform="translate(72.787654 0)scale(0.996264)" xlink:href="#CMR17-57"/>
     <use transform="translate(118.478131 0)scale(0.996264)" xlink:href="#CMR17-48"/>
     <use transform="translate(164.168608 0)scale(0.996264)" xlink:href="#CMR17-37"/>
    </g>
   </g>
   <g id="text_6">
    <!-- $99.10\% $ -->
    <g transform="translate(84.323175 250.415366)scale(0.1 -0.1)">
     <use transform="scale(0.996264)" xlink:href="#CMR17-57"/>
     <use transform="translate(45.690477 0)scale(0.996264)" xlink:href="#CMR17-57"/>
     <use transform="translate(91.380954 0)scale(0.996264)" xlink:href="#CMMI12-58"/>
     <use transform="translate(118.478131 0)scale(0.996264)" xlink:href="#CMR17-49"/>
     <use transform="translate(164.168608 0)scale(0.996264)" xlink:href="#CMR17-48"/>
     <use transform="translate(209.859086 0)scale(0.996264)" xlink:href="#CMR17-37"/>
    </g>
   </g>
  </g>
  <g id="axes_4">
   <g id="matplotlib.axis_7">
    <g id="xtick_16">
     <g id="line2d_16">
      <g>
       <use style="fill:#555555;stroke:#555555;stroke-width:0.6;" x="268.625455" xlink:href="#mba46a1aeca" y="307.584"/>
      </g>
     </g>
    </g>
    <g id="xtick_17">
     <g id="line2d_17">
      <g>
       <use style="fill:#555555;stroke:#555555;stroke-width:0.6;" x="301.090909" xlink:href="#mba46a1aeca" y="307.584"/>
      </g>
     </g>
    </g>
    <g id="xtick_18">
     <g id="line2d_18">
      <g>
       <use style="fill:#555555;stroke:#555555;stroke-width:0.6;" x="333.556364" xlink:href="#mba46a1aeca" y="307.584"/>
      </g>
     </g>
    </g>
    <g id="xtick_19">
     <g id="line2d_19">
      <g>
       <use style="fill:#555555;stroke:#555555;stroke-width:0.6;" x="366.021818" xlink:href="#mba46a1aeca" y="307.584"/>
      </g>
     </g>
    </g>
    <g id="xtick_20">
     <g id="line2d_20">
      <g>
       <use style="fill:#555555;stroke:#555555;stroke-width:0.6;" x="398.487273" xlink:href="#mba46a1aeca" y="307.584"/>
      </g>
     </g>
    </g>
   </g>
   <g id="matplotlib.axis_8"/>
   <g id="patch_8">
    <path d="M 398.487273 247.104 
C 398.487273 246.597314 398.476592 246.090658 398.455233 245.584222 
C 398.433875 245.077785 398.401842 244.57163 398.359146 244.065944 
L 333.556364 247.104 
L 398.487273 247.104 
z
" style="fill:#ff007a;"/>
   </g>
   <g id="patch_9">
    <path d="M 398.359146 244.065944 
C 397.829141 237.788562 395.661502 231.648006 391.977838 225.988775 
C 388.294173 220.329544 383.164685 215.259487 376.877147 211.063046 
C 370.589609 206.866604 363.263845 203.62375 355.310846 201.516414 
C 347.357848 199.409079 338.929176 198.477422 330.497698 198.773712 
C 322.06622 199.070002 313.792616 200.588592 306.141054 203.244286 
C 298.489492 205.899981 291.605789 209.642169 285.876135 214.260905 
C 280.146481 218.879642 275.680067 224.286908 272.72747 230.179343 
C 269.774873 236.071778 268.39236 242.33709 268.657494 248.62378 
C 268.922628 254.910469 270.830355 261.098731 274.273649 266.841389 
C 277.716942 272.584048 282.630182 277.771664 288.737725 282.113201 
C 294.845268 286.454739 302.030721 289.86746 309.890965 292.159904 
C 317.751209 294.452348 326.13645 295.580827 334.576257 295.482031 
C 343.016064 295.383235 351.349598 294.059047 359.10933 291.583756 
C 366.869062 289.108465 373.907113 285.529244 379.828633 281.046895 
C 385.750153 276.564546 390.442294 271.264489 393.641818 265.44407 
C 396.841341 259.623651 398.487273 253.39379 398.487273 247.103997 
L 333.556364 247.104 
L 398.359146 244.065944 
z
" style="fill:#620080;"/>
   </g>
   <g id="text_7">
    <!-- $1.00\% $ -->
    <g transform="translate(359.488866 248.682793)scale(0.1 -0.1)">
     <use transform="scale(0.996264)" xlink:href="#CMR17-49"/>
     <use transform="translate(45.690477 0)scale(0.996264)" xlink:href="#CMMI12-58"/>
     <use transform="translate(72.787654 0)scale(0.996264)" xlink:href="#CMR17-48"/>
     <use transform="translate(118.478131 0)scale(0.996264)" xlink:href="#CMR17-48"/>
     <use transform="translate(164.168608 0)scale(0.996264)" xlink:href="#CMR17-37"/>
    </g>
   </g>
   <g id="text_8">
    <!-- $99.00\% $ -->
    <g transform="translate(279.119554 250.506528)scale(0.1 -0.1)">
     <use transform="scale(0.996264)" xlink:href="#CMR17-57"/>
     <use transform="translate(45.690477 0)scale(0.996264)" xlink:href="#CMR17-57"/>
     <use transform="translate(91.380954 0)scale(0.996264)" xlink:href="#CMMI12-58"/>
     <use transform="translate(118.478131 0)scale(0.996264)" xlink:href="#CMR17-48"/>
     <use transform="translate(164.168608 0)scale(0.996264)" xlink:href="#CMR17-48"/>
     <use transform="translate(209.859086 0)scale(0.996264)" xlink:href="#CMR17-37"/>
    </g>
   </g>
   <g id="legend_1">
    <g id="patch_10">
     <path d="M 141.423848 337.977178 
L 319.376152 337.977178 
Q 321.376152 337.977178 321.376152 335.977178 
L 321.376152 323.04 
Q 321.376152 321.04 319.376152 321.04 
L 141.423848 321.04 
Q 139.423848 321.04 139.423848 323.04 
L 139.423848 335.977178 
Q 139.423848 337.977178 141.423848 337.977178 
z
" style="fill:#e5e5e5;opacity:0.8;stroke:#cccccc;stroke-linejoin:miter;stroke-width:0.5;"/>
    </g>
    <g id="patch_11">
     <path d="M 143.423848 332.04 
L 163.423848 332.04 
L 163.423848 325.04 
L 143.423848 325.04 
z
" style="fill:#ff007a;"/>
    </g>
    <g id="text_9">
     <!-- Discretization -->
     <defs>
      <path d="M 8.90625 69 
L 8.90625 0 
L 33.5 0 
C 49.90625 0 62.5 15.3125 62.5 33.90625 
C 62.5 53.09375 49.90625 69 33.5 69 
z
M 17.09375 5.578125 
L 17.09375 63.421875 
L 31.296875 63.421875 
C 44.703125 63.421875 54.296875 51.203125 54.296875 33.90625 
C 54.296875 17.296875 44.796875 5.578125 31.296875 5.578125 
z
" id="CMSS17-68"/>
      <path d="M 15.296875 65.359375 
L 6.90625 65.359375 
L 6.90625 57 
L 15.296875 57 
z
M 14.796875 42.796875 
L 7.40625 42.796875 
L 7.40625 0 
L 14.796875 0 
z
" id="CMSS17-105"/>
      <path d="M 32.203125 41.046875 
C 26.296875 43.859375 21.703125 43.859375 18.703125 43.859375 
C 11.59375 43.859375 3.09375 41.375 3.09375 31.296875 
C 3.09375 21.234375 14.09375 19.03125 17.09375 18.421875 
C 21.703125 17.53125 26.796875 16.53125 26.796875 11.5625 
C 26.796875 5.265625 19.59375 5.265625 18.296875 5.265625 
C 14.296875 5.265625 8.796875 6.359375 3.796875 9.96875 
L 2.59375 3.28125 
C 8.296875 0 13.796875 -1 18.40625 -1 
C 30.703125 -1 33.796875 6.5 33.796875 12.203125 
C 33.796875 17.09375 31 20.390625 29.09375 21.890625 
C 25.796875 24.5 24.59375 24.796875 16.40625 26.5 
C 15 26.703125 10.09375 27.796875 10.09375 32.28125 
C 10.09375 38 16.40625 38 17.796875 38 
C 24.296875 38 28.296875 35.984375 31 34.5 
z
" id="CMSS17-115"/>
      <path d="M 38.5 39.703125 
C 38.5 40.390625 33.90625 42.40625 32.703125 42.796875 
C 29.40625 44 25.203125 44 24.09375 44 
C 11.09375 44 3.296875 32.703125 3.296875 21.296875 
C 3.296875 9.296875 12 -1 23.703125 -1 
C 30.40625 -1 35.203125 1.1875 39.09375 3.78125 
L 38.5 10.375 
C 34.203125 7.078125 29.203125 5.265625 23.796875 5.265625 
C 16 5.265625 10.90625 12.09375 10.90625 21.390625 
C 10.90625 28.609375 14.203125 37.71875 24.203125 37.71875 
C 29.703125 37.71875 32.796875 36.609375 37.40625 33.515625 
z
" id="CMSS17-99"/>
      <path d="M 14.90625 21.296875 
C 14.90625 30.703125 21.796875 37 30.59375 37 
L 30.59375 43.578125 
C 24.203125 43.578125 18.203125 40.390625 14.59375 35.203125 
L 14.59375 43.09375 
L 7.5 43.09375 
L 7.5 0 
L 14.90625 0 
z
" id="CMSS17-114"/>
      <path d="M 39.09375 21.515625 
C 39.09375 24.84375 38.90625 31.296875 35.703125 36.640625 
C 32.203125 42.390625 26.5 44 22.203125 44 
C 11.796875 44 3 34.1875 3 21.484375 
C 3 9.09375 12.09375 -1 23.59375 -1 
C 28.09375 -1 33.59375 0.296875 38.59375 3.875 
C 38.59375 4.28125 38.40625 6.46875 38.296875 6.5625 
C 38.296875 6.765625 38 9.84375 38 10.25 
C 33.203125 6.359375 27.703125 5.078125 23.703125 5.078125 
C 17.296875 5.078125 10.40625 10.421875 10.09375 21.515625 
z
M 10.90625 27 
C 12.203125 32.5625 16.59375 37.828125 22.203125 37.828125 
C 23.703125 37.828125 30.703125 37.828125 32.5 27 
z
" id="CMSS17-101"/>
      <path d="M 16.703125 37 
L 29.703125 37 
L 29.703125 42.765625 
L 16.703125 42.765625 
L 16.703125 55 
L 9.59375 55 
L 9.59375 42.765625 
L 1.703125 42.765625 
L 1.703125 37 
L 9.40625 37 
L 9.40625 11.703125 
C 9.40625 6 10.703125 -1 17.296875 -1 
C 22.296875 -1 26.90625 0.390625 31.296875 2.6875 
L 29.703125 8.5625 
C 27.296875 6.46875 24.40625 5.265625 21.296875 5.265625 
C 16.90625 5.265625 16.703125 10.875 16.703125 13.375 
z
" id="CMSS17-116"/>
      <path d="M 37.5 39.09375 
L 37.5 42.96875 
L 3.90625 42.96875 
L 3.90625 37 
L 16.703125 37 
C 17.90625 37 19.09375 37 20.296875 37 
L 27.296875 37 
L 2.59375 4.078125 
L 2.59375 0 
L 37.796875 0 
L 37.796875 6.171875 
L 24.203125 6.171875 
C 23 6.171875 21.796875 6.171875 20.59375 6.171875 
L 12.90625 6.171875 
z
" id="CMSS17-122"/>
      <path d="M 37.59375 27.984375 
C 37.59375 37.375 30.90625 43.875 21.90625 43.875 
C 17.5 43.875 12.703125 43.078125 7.203125 39.890625 
L 7.796875 33.359375 
C 10.296875 35.125 14.59375 38 21.796875 38 
C 26.90625 38 30 34.0625 30 27.84375 
L 30 24 
C 14 24 4 19.34375 4 11.34375 
C 4 7.203125 6.5 -1 14.796875 -1 
C 16.296875 -1 24.40625 -1 30.203125 3.390625 
L 30.203125 -0.296875 
L 37.59375 -0.296875 
z
M 30 12.75 
C 30 10.953125 30 8.5625 27 6.78125 
C 24.40625 5.078125 21.09375 5.078125 19.703125 5.078125 
C 14.703125 5.078125 11.296875 7.984375 11.296875 11.625 
C 11.296875 18.921875 26.90625 18.921875 30 18.921875 
z
" id="CMSS17-97"/>
      <path d="M 44.203125 21.1875 
C 44.203125 34 34.703125 44 23.5 44 
C 12 44 2.703125 33.703125 2.703125 21.1875 
C 2.703125 8.5 12.296875 -1 23.40625 -1 
C 34.796875 -1 44.203125 8.796875 44.203125 21.1875 
M 23.5 5.265625 
C 16.40625 5.265625 10.296875 11.078125 10.296875 22 
C 10.296875 33.609375 17.40625 37.921875 23.40625 37.921875 
C 29.90625 37.921875 36.59375 33.21875 36.59375 22 
C 36.59375 10.671875 30.09375 5.265625 23.5 5.265625 
" id="CMSS17-111"/>
      <path d="M 40.90625 29.328125 
C 40.90625 35.671875 39.40625 44 28.09375 44 
C 21.703125 44 17.5 40.71875 14.703125 37.328125 
L 14.703125 43.09375 
L 7.40625 43.09375 
L 7.40625 0 
L 15 0 
L 15 24.359375 
C 15 30.6875 17.40625 37.9375 24.203125 37.9375 
C 33 37.9375 33.296875 32 33.296875 28.578125 
L 33.296875 0 
L 40.90625 0 
z
" id="CMSS17-110"/>
     </defs>
     <g transform="translate(171.423848 332.04)scale(0.1 -0.1)">
      <use transform="scale(0.996264)" xlink:href="#CMSS17-68"/>
      <use transform="translate(67.542842 0)scale(0.996264)" xlink:href="#CMSS17-105"/>
      <use transform="translate(89.723565 0)scale(0.996264)" xlink:href="#CMSS17-115"/>
      <use transform="translate(125.637107 0)scale(0.996264)" xlink:href="#CMSS17-99"/>
      <use transform="translate(167.275929 0)scale(0.996264)" xlink:href="#CMSS17-114"/>
      <use transform="translate(199.185701 0)scale(0.996264)" xlink:href="#CMSS17-101"/>
      <use transform="translate(240.824523 0)scale(0.996264)" xlink:href="#CMSS17-116"/>
      <use transform="translate(274.65609 0)scale(0.996264)" xlink:href="#CMSS17-105"/>
      <use transform="translate(296.836813 0)scale(0.996264)" xlink:href="#CMSS17-122"/>
      <use transform="translate(337.514685 0)scale(0.996264)" xlink:href="#CMSS17-97"/>
      <use transform="translate(382.436606 0)scale(0.996264)" xlink:href="#CMSS17-116"/>
      <use transform="translate(416.268172 0)scale(0.996264)" xlink:href="#CMSS17-105"/>
      <use transform="translate(438.448895 0)scale(0.996264)" xlink:href="#CMSS17-111"/>
      <use transform="translate(485.292519 0)scale(0.996264)" xlink:href="#CMSS17-110"/>
     </g>
    </g>
    <g id="patch_12">
     <path d="M 248.280171 332.04 
L 268.280171 332.04 
L 268.280171 325.04 
L 248.280171 325.04 
z
" style="fill:#620080;"/>
    </g>
    <g id="text_10">
     <!-- BiCGStab -->
     <defs>
      <path d="M 8.90625 69 
L 8.90625 0 
L 33.796875 0 
C 47.40625 0 57.296875 8.96875 57.296875 18.75 
C 57.296875 26.328125 50.796875 34 39.09375 36.203125 
C 52.09375 39.96875 54.703125 47.5 54.703125 51.765625 
C 54.703125 60.671875 44.90625 69 31.203125 69 
z
M 17 39 
L 17 63.421875 
L 28.5 63.421875 
C 38.796875 63.421875 46.90625 58.1875 46.90625 51.65625 
C 46.90625 45.71875 40.5 39 27.59375 39 
z
M 17 5.578125 
L 17 32.921875 
L 30.296875 32.921875 
C 41.09375 32.921875 49.40625 26.234375 49.40625 18.84375 
C 49.40625 12.0625 42.09375 5.578125 31 5.578125 
z
" id="CMSS17-66"/>
      <path d="M 54.703125 11.15625 
C 48 6.671875 44.90625 5.375 36.796875 5.375 
C 22.796875 5.375 14.59375 20.359375 14.59375 34.046875 
C 14.59375 48.625 23 63 37.203125 63 
C 43.59375 63 47.796875 61.21875 52.90625 58.046875 
L 54.296875 65.890625 
C 49.5 68.28125 43.40625 69.375 37.296875 69.375 
C 18.09375 69.375 6.203125 51.8125 6.203125 34.046875 
C 6.203125 14.484375 20.296875 -1 36.296875 -1 
C 44.90625 -1 47.90625 -0.296875 55.296875 4.375 
z
" id="CMSS17-67"/>
      <path d="M 56.40625 29 
L 36.5 29 
L 36.5 22.828125 
L 48.796875 22.828125 
L 48.796875 7.359375 
C 44.90625 6.265625 40.90625 5.46875 36.90625 5.46875 
C 22.90625 5.46875 14.59375 20.328125 14.59375 34.375 
C 14.59375 48.359375 23.296875 63 36.90625 63 
C 44.59375 63 48.90625 60.640625 54.203125 56.671875 
L 55.5 64.59375 
C 48.90625 67.984375 44.796875 69.375 37.296875 69.375 
C 17.90625 69.375 6.203125 51.9375 6.203125 34.09375 
C 6.203125 17.03125 18 -1 36.703125 -1 
C 43.703125 -1 50.203125 0.796875 56.40625 3.875 
z
" id="CMSS17-71"/>
      <path d="M 43.703125 65.140625 
C 39.296875 67.71875 34.5 70 26.40625 70 
C 13.5 70 5.203125 60.609375 5.203125 51.03125 
C 5.203125 47.265625 6.296875 43.015625 10.203125 38.671875 
C 14.09375 34.3125 18.5 33.140625 24.09375 31.765625 
C 26.40625 31.15625 30.296875 30.0625 31 29.78125 
C 36.59375 27.609375 39.296875 22.5625 39.296875 17.8125 
C 39.296875 11.59375 34.40625 4.96875 25.703125 4.96875 
C 22.703125 4.96875 13.90625 4.96875 5.59375 12.796875 
L 4.203125 4.96875 
C 12.40625 -1 21.296875 -2 25.796875 -2 
C 38.09375 -2 46.90625 7.625 46.90625 18.53125 
C 46.90625 22.5 45.703125 27.546875 41.5 32.203125 
C 37.40625 36.671875 33.796875 37.65625 25.59375 39.828125 
C 20.90625 41.03125 17.90625 41.828125 15.40625 44.890625 
C 13.703125 47.078125 12.796875 49.15625 12.796875 51.828125 
C 12.796875 57.390625 17.59375 63.4375 26.40625 63.4375 
C 30.796875 63.4375 36.5 62.53125 42.296875 57.1875 
z
" id="CMSS17-83"/>
      <path d="M 14.90625 69 
L 7.5 69 
L 7.5 -0.203125 
L 15.09375 -0.203125 
L 15.09375 4.28125 
C 18.90625 0.59375 23.5 -1 27.59375 -1 
C 37.203125 -1 45 8.578125 45 21.125 
C 45 32.59375 39 43.0625 30.09375 43.0625 
C 23.796875 43.0625 18.203125 40.484375 14.90625 37.796875 
z
M 15.09375 31.96875 
C 17.296875 34.71875 20.40625 37 24.796875 37 
C 30.703125 37 37.40625 32.765625 37.40625 21.125 
C 37.40625 8.71875 29.40625 5.078125 23.90625 5.078125 
C 21.90625 5.078125 19.796875 5.5625 17.796875 7.25 
C 15.09375 9.609375 15.09375 11.078125 15.09375 12.453125 
z
" id="CMSS17-98"/>
     </defs>
     <g transform="translate(276.280171 332.04)scale(0.1 -0.1)">
      <use transform="scale(0.996264)" xlink:href="#CMSS17-66"/>
      <use transform="translate(62.33804 0)scale(0.996264)" xlink:href="#CMSS17-105"/>
      <use transform="translate(84.518763 0)scale(0.996264)" xlink:href="#CMSS17-67"/>
      <use transform="translate(144.374535 0)scale(0.996264)" xlink:href="#CMSS17-71"/>
      <use transform="translate(206.83276 0)scale(0.996264)" xlink:href="#CMSS17-83"/>
      <use transform="translate(258.881277 0)scale(0.996264)" xlink:href="#CMSS17-116"/>
      <use transform="translate(292.712843 0)scale(0.996264)" xlink:href="#CMSS17-97"/>
      <use transform="translate(337.634764 0)scale(0.996264)" xlink:href="#CMSS17-98"/>
     </g>
    </g>
   </g>
  </g>
  <g id="text_11">
   <!-- Runtime distribution -->
   <defs>
    <path d="M 39.40625 32.953125 
L 39.59375 33.046875 
C 55.203125 38.421875 55.296875 49.171875 55.296875 51.0625 
C 55.296875 60.515625 45.703125 69.578125 31.296875 69.578125 
L 8.90625 69.578125 
L 8.90625 0.5 
L 17.09375 0.5 
L 17.09375 32 
L 31.796875 32 
L 49.5 0.5 
L 57.90625 0.5 
z
M 17.09375 38.078125 
L 17.09375 64 
L 30.203125 64 
C 42.90625 64 47.40625 56.828125 47.40625 51.046875 
C 47.40625 45.65625 43.40625 38.078125 30.203125 38.078125 
z
" id="CMSS17-82"/>
    <path d="M 40.90625 42.796875 
L 33.296875 42.796875 
L 33.296875 15.1875 
C 33.296875 7.78125 27.90625 4.78125 22.203125 4.78125 
C 15.59375 4.78125 15 6.984375 15 11.078125 
L 15 42.796875 
L 7.40625 42.796875 
L 7.40625 10.59375 
C 7.40625 2.796875 10.09375 -1 17 -1 
C 20.40625 -1 28.09375 -0.203125 33.5 4.78125 
L 33.5 0 
L 40.90625 0 
z
" id="CMSS17-117"/>
    <path d="M 67 29.328125 
C 67 36.0625 65.296875 44 54.09375 44 
C 46.59375 44 42.09375 39.3125 40.09375 36.421875 
C 38.296875 41.71875 34.09375 44 28.09375 44 
C 21.296875 44 17 40.125 14.703125 37.328125 
L 14.703125 43.09375 
L 7.40625 43.09375 
L 7.40625 0 
L 15 0 
L 15 24.359375 
C 15 30.296875 17.203125 37.9375 24.296875 37.9375 
C 33.40625 37.9375 33.40625 31.5 33.40625 28.578125 
L 33.40625 0 
L 41 0 
L 41 24.359375 
C 41 30.296875 43.203125 37.9375 50.296875 37.9375 
C 59.40625 37.9375 59.40625 31.5 59.40625 28.578125 
L 59.40625 0 
L 67 0 
z
" id="CMSS17-109"/>
    <path d="M 40.796875 69 
L 33.40625 69 
L 33.40625 38.09375 
C 30.296875 40.671875 25.203125 43.0625 19.59375 43.0625 
C 10.5 43.0625 3.296875 33.296875 3.296875 21.046875 
C 3.296875 8.78125 10.40625 -1 19.296875 -1 
C 26.203125 -1 30.796875 2.6875 33.203125 4.78125 
L 33.203125 -0.203125 
L 40.796875 -0.203125 
z
M 33.203125 13.0625 
C 33.203125 11.671875 33.203125 10.203125 30.09375 7.53125 
C 28.09375 5.859375 25.703125 5.078125 23.40625 5.078125 
C 18 5.078125 10.90625 9 10.90625 20.9375 
C 10.90625 33.34375 18.90625 37 24.40625 37 
C 28.09375 37 31.09375 35.21875 33.203125 32.265625 
z
" id="CMSS17-100"/>
   </defs>
   <g transform="translate(180.429704 15.21418)scale(0.12 -0.12)">
    <use transform="scale(0.996264)" xlink:href="#CMSS17-82"/>
    <use transform="translate(60.416155 0)scale(0.996264)" xlink:href="#CMSS17-117"/>
    <use transform="translate(108.621098 0)scale(0.996264)" xlink:href="#CMSS17-110"/>
    <use transform="translate(156.826041 0)scale(0.996264)" xlink:href="#CMSS17-116"/>
    <use transform="translate(190.657608 0)scale(0.996264)" xlink:href="#CMSS17-105"/>
    <use transform="translate(212.838331 0)scale(0.996264)" xlink:href="#CMSS17-109"/>
    <use transform="translate(287.067585 0)scale(0.996264)" xlink:href="#CMSS17-101"/>
    <use transform="translate(359.93552 0)scale(0.996264)" xlink:href="#CMSS17-100"/>
    <use transform="translate(408.140463 0)scale(0.996264)" xlink:href="#CMSS17-105"/>
    <use transform="translate(430.321186 0)scale(0.996264)" xlink:href="#CMSS17-115"/>
    <use transform="translate(466.234728 0)scale(0.996264)" xlink:href="#CMSS17-116"/>
    <use transform="translate(500.066295 0)scale(0.996264)" xlink:href="#CMSS17-114"/>
    <use transform="translate(531.976068 0)scale(0.996264)" xlink:href="#CMSS17-105"/>
    <use transform="translate(554.156791 0)scale(0.996264)" xlink:href="#CMSS17-98"/>
    <use transform="translate(602.361734 0)scale(0.996264)" xlink:href="#CMSS17-117"/>
    <use transform="translate(650.566677 0)scale(0.996264)" xlink:href="#CMSS17-116"/>
    <use transform="translate(684.398244 0)scale(0.996264)" xlink:href="#CMSS17-105"/>
    <use transform="translate(706.578967 0)scale(0.996264)" xlink:href="#CMSS17-111"/>
    <use transform="translate(753.42259 0)scale(0.996264)" xlink:href="#CMSS17-110"/>
   </g>
  </g>
 </g>
</svg>
